<?xml version="1.0" encoding="UTF-8" standalone="no"?>
<!-- Created with Inkscape (http://www.inkscape.org/) -->

<svg
   xmlns:dc="http://purl.org/dc/elements/1.1/"
   xmlns:cc="http://creativecommons.org/ns#"
   xmlns:rdf="http://www.w3.org/1999/02/22-rdf-syntax-ns#"
   xmlns:svg="http://www.w3.org/2000/svg"
   xmlns="http://www.w3.org/2000/svg"
   xmlns:sodipodi="http://sodipodi.sourceforge.net/DTD/sodipodi-0.dtd"
   xmlns:inkscape="http://www.inkscape.org/namespaces/inkscape"
   version="1.1"
   id="svg2"
   width="1200"
   height="580"
   viewBox="0 0 1200 580"
   sodipodi:docname="smash-title.svg"
   inkscape:version="0.92.3 (2405546, 2018-03-11)">
  <metadata
     id="metadata8">
    <rdf:RDF>
      <cc:Work
         rdf:about="">
        <dc:format>image/svg+xml</dc:format>
        <dc:type
           rdf:resource="http://purl.org/dc/dcmitype/StillImage" />
        <dc:title></dc:title>
      </cc:Work>
    </rdf:RDF>
  </metadata>
  <defs
     id="defs6">
    <clipPath
       clipPathUnits="userSpaceOnUse"
       id="clipPath4624">
      <g
         inkscape:label="Clip"
         id="use4626">
        <text
           id="text4633"
           y="529.54724"
           x="394.125"
           style="font-style:normal;font-weight:normal;font-size:24px;line-height:125%;font-family:sans-serif;letter-spacing:0px;word-spacing:0px;fill:#000000;fill-opacity:1;stroke:none;stroke-width:1px;stroke-linecap:butt;stroke-linejoin:miter;stroke-opacity:1"
           xml:space="preserve"><tspan
             style="font-style:normal;font-variant:normal;font-weight:normal;font-stretch:normal;font-size:64px;font-family:'Berlin Sans FB Demi';-inkscape-font-specification:'Berlin Sans FB Demi'"
             y="529.54724"
             x="394.125"
             id="tspan4631"
             sodipodi:role="line">RAMDONIZER</tspan></text>
      </g>
    </clipPath>
    <filter
       style="color-interpolation-filters:sRGB;"
       inkscape:label="Drop Shadow"
       id="filter5984">
      <feFlood
         flood-opacity="1"
         flood-color="rgb(255,255,255)"
         result="flood"
         id="feFlood5974" />
      <feComposite
         in="flood"
         in2="SourceGraphic"
         operator="in"
         result="composite1"
         id="feComposite5976" />
      <feGaussianBlur
         in="composite1"
         stdDeviation="11.3"
         result="blur"
         id="feGaussianBlur5978" />
      <feOffset
         dx="0"
         dy="0"
         result="offset"
         id="feOffset5980" />
      <feComposite
         in="SourceGraphic"
         in2="offset"
         operator="over"
         result="fbSourceGraphic"
         id="feComposite5982" />
      <feColorMatrix
         result="fbSourceGraphicAlpha"
         in="fbSourceGraphic"
         values="0 0 0 -1 0 0 0 0 -1 0 0 0 0 -1 0 0 0 0 1 0"
         id="feColorMatrix5986" />
      <feFlood
         id="feFlood5988"
         flood-opacity="1"
         flood-color="rgb(255,255,255)"
         result="flood"
         in="fbSourceGraphic" />
      <feComposite
         in2="fbSourceGraphic"
         id="feComposite5990"
         in="flood"
         operator="in"
         result="composite1" />
      <feGaussianBlur
         id="feGaussianBlur5992"
         in="composite1"
         stdDeviation="11.3"
         result="blur" />
      <feOffset
         id="feOffset5994"
         dx="0"
         dy="0"
         result="offset" />
      <feComposite
         in2="offset"
         id="feComposite5996"
         in="fbSourceGraphic"
         operator="over"
         result="fbSourceGraphic" />
      <feColorMatrix
         result="fbSourceGraphicAlpha"
         in="fbSourceGraphic"
         values="0 0 0 -1 0 0 0 0 -1 0 0 0 0 -1 0 0 0 0 1 0"
         id="feColorMatrix6022" />
      <feFlood
         id="feFlood6024"
         flood-opacity="1"
         flood-color="rgb(255,255,255)"
         result="flood"
         in="fbSourceGraphic" />
      <feComposite
         in2="fbSourceGraphic"
         id="feComposite6026"
         in="flood"
         operator="in"
         result="composite1" />
      <feGaussianBlur
         id="feGaussianBlur6028"
         in="composite1"
         stdDeviation="11.3"
         result="blur" />
      <feOffset
         id="feOffset6030"
         dx="0"
         dy="0"
         result="offset" />
      <feComposite
         in2="offset"
         id="feComposite6032"
         in="fbSourceGraphic"
         operator="over"
         result="composite2" />
    </filter>
  </defs>
  <sodipodi:namedview
     pagecolor="#ffffff"
     bordercolor="#666666"
     borderopacity="1"
     objecttolerance="10"
     gridtolerance="10"
     guidetolerance="10"
     inkscape:pageopacity="0"
     inkscape:pageshadow="2"
     inkscape:window-width="1440"
     inkscape:window-height="837"
     id="namedview4"
     showgrid="false"
     inkscape:zoom="0.58166667"
     inkscape:cx="638.22709"
     inkscape:cy="256.56629"
     inkscape:window-x="-8"
     inkscape:window-y="-8"
     inkscape:window-maximized="1"
     inkscape:current-layer="svg2"
     showguides="false" />
  <g
     id="g5556"
     style="filter:url(#filter5984)">
    <path
       inkscape:connector-curvature="0"
       id="path4520"
       d="m 598.30985,452.89541 c 0.38001,-1.2375 0.94347,-9.13673 1.25213,-17.55385 l 0.5612,-15.30385 -2.86489,-2.9903 -2.86489,-2.9903 8.45967,0.29415 8.45967,0.29415 7.28025,12.5 c 4.00414,6.875 7.7425,12.5 8.30748,12.5 0.56498,0 4.53839,-5.625 8.82979,-12.5 l 7.80255,-12.5 9.24257,-0.28862 c 6.63862,-0.20731 9.04722,0.0275 8.54917,0.83333 -0.38137,0.61707 -0.67055,9.63445 -0.64262,20.03862 l 0.0508,18.91667 h -8.74979 -8.7498 l 0.82028,-7.65591 c 0.82092,-7.66189 0.40984,-10.13587 -1.21889,-7.33576 -0.47721,0.82042 -2.81619,4.64167 -5.19774,8.49167 l -4.33008,7 -6.72726,0.29569 c -6.113,0.26869 -6.72726,0.11692 -6.72726,-1.66216 0,-2.06752 -7.70206,-16.1319 -8.83644,-16.13583 -0.36496,-10e-4 -0.51912,4.04874 -0.34259,9 l 0.32097,9.0023 h -6.6876 c -6.47334,0 -6.66547,-0.0721 -5.99667,-2.25 z m -409.3415,-0.46249 c -5.47722,-2.6982 -7.06817,-7.56981 -7.09421,-21.72306 -0.02,-10.86157 -0.21761,-12.1438 -2.19627,-14.25 l -2.17432,-2.31445 h 10.14954 10.14955 l 0.27477,16.25 0.27477,16.25 9.75,0.28621 9.75,0.28621 v -16.53621 -16.53621 h 8 8 v 20 20 l -20.75,-0.0228 c -17.31594,-0.019 -21.31001,-0.29864 -24.13383,-1.68972 z M 303.7026,436.56717 c 0.3418,-17.14669 0.29446,-17.63864 -1.92432,-20.00042 l -2.27473,-2.42134 10.42432,-0.001 10.42431,-10e-4 v 16.25106 16.25106 l 10.5801,0.28211 10.5801,0.28211 1.65372,3.46789 1.65372,3.46789 -20.73382,4.2e-4 -20.73382,4.3e-4 0.35042,-17.57909 z m 108.00148,1.12057 0.3519,-16.45815 -8.06511,-0.29209 -8.06512,-0.29209 2.06142,-3.25 2.06141,-3.25 h 23.41636 23.41636 l -2.36872,3.75 c -2.30682,3.652 -2.54241,3.75773 -9.01456,4.04569 l -6.64584,0.29569 v 15.95431 15.95431 l -8.75,2.4e-4 -8.75,2.5e-4 z m 98.62352,14.20767 c 0.38977,-1.2375 0.94837,-8.90256 1.24133,-17.03347 0.4372,-12.13419 0.26876,-15.09107 -0.93994,-16.5 -3.52487,-4.10875 -3.34175,-4.21653 7.16417,-4.21653 h 10.05902 v 20 20 h -9.11663 c -8.9976,0 -9.10738,-0.0294 -8.40795,-2.25 z m 215.12513,-15.5 c 8.6824,-13.42713 11.3417,-18.29797 10.9195,-20 -0.5432,-2.18981 -0.3479,-2.25 7.3004,-2.25 h 7.8585 l 10.3431,17.75 c 5.6887,9.7625 10.9877,18.7625 11.7755,20 l 1.4325,2.25 -8.865,-0.003 -8.865,-0.003 -3,-5.74715 -3,-5.74715 -10.6924,-0.28325 -10.6924,-0.28324 -3.3076,6.02138 -3.3076,6.02138 -4.6886,0.0119 -4.6886,0.0119 11.4777,-17.75 z m 21.3995,-1.28984 c 0,-1.00782 -2.9857,-7.06949 -4.8314,-9.80896 -0.6739,-1.00021 -1.7177,0.065 -4.0387,4.12172 -1.7215,3.0088 -3.1299,5.75326 -3.1299,6.09881 0,0.34555 2.7,0.62827 6,0.62827 3.4865,0 6,-0.43559 6,-1.03984 z m 92.8354,2.58216 0.3973,-16.45767 -8.1111,-0.29233 -8.1111,-0.29232 1.98,-3.25 1.98,-3.25 h 23.0148 c 12.658,0 23.0146,0.26807 23.0146,0.59571 0,0.32764 -0.772,1.90264 -1.7156,3.5 -1.6468,2.78784 -2.0111,2.90429 -9.086,2.90429 h -7.3704 l 0.336,16.50095 0.3361,16.50096 -8.531,-9.6e-4 -8.5309,-9.5e-4 z m 97.7479,13.20768 c 0.4082,-1.7875 0.7297,-9.68138 0.7143,-17.54195 -0.026,-13.53407 -0.1503,-14.4223 -2.3371,-16.75 l -2.3092,-2.45805 h 23.1743 c 12.7459,0 23.1744,0.24835 23.1744,0.55188 0,1.03093 -4.4966,8.43267 -5.1276,8.44042 -0.3452,0.004 -1.1878,-0.6673 -1.8724,-1.4923 -0.9253,-1.1149 -3.3957,-1.5 -9.6225,-1.5 h -8.3775 v 5 5 h 8.9743 c 8.96,0 8.9768,0.005 10.5257,3 l 1.5513,3 h -10.5257 -10.5256 v 5.46725 5.46725 l 11.1961,0.28275 11.1962,0.28275 1.8959,3.25 1.8959,3.25 h -22.1715 -22.1716 z m 205.91677,-25.3195 c -12.0033,-3.33851 -48.9924,-11.73566 -72,-16.3452 -101.93727,-20.42298 -210.77957,-32.56966 -360.00007,-40.17561 -32.43795,-1.65339 -184.12562,-2.3288 -225.50005,-1.00406 -65.48563,2.09674 -157.74993,7.9505 -207.5,13.16495 -84.29652,8.83537 -168.21081,22.45117 -233.499999,37.88734 -26.229411,6.20136 -28.093231,6.5446 -19,3.49898 69.03095,-23.12071 185.297239,-46.136 289.999999,-57.40645 102.64457,-11.04889 175.61232,-14.62747 280,-13.73209 78.84536,0.67629 121.30975,2.27311 179.50005,6.7499 122.5613,9.42908 239.73057,28.89669 333.50007,55.41084 16.7902,4.74758 41.1706,12.35821 41.8884,13.07593 0.7699,0.7699 -2.2052,0.31708 -7.3884,-1.12453 z M 34.950811,373.31573 c -8.20784,-2.17358 -9.68948,-4.16859 -11.63794,-15.67032 -2.1759,-12.84428 -9.500151,-45.64314 -10.701111,-47.92083 -0.78133,-1.48184 -0.60738,-2.2173 0.76113,-3.21797 2.28083,-1.66779 3.04662,-1.13051 5.63938,3.95665 10.197361,20.00785 29.786871,39.26369 46.536241,45.74358 8.20415,3.17397 21.52989,3.20646 29.5053,0.0719 7.631659,-2.99942 14.936639,-9.70273 17.782319,-16.31769 4.30327,-10.00323 0.91679,-23.15543 -8.04742,-31.25405 -5.641501,-5.09676 -11.467559,-8.16407 -33.494809,-17.63435 -11.15219,-4.79468 -22.45133,-10.21044 -25.10921,-12.03499 -14.68751,-10.0825 -22.3567,-24.80983 -22.31515,-42.85235 0.0526,-22.865 10.15451,-39.78191 29.22526,-48.94164 15.32276,-7.35956 34.60166,-9.08517 55.456619,-4.96381 6.29841,1.24469 14.15869,2.08239 18.85616,2.00957 l 8.05539,-0.12489 3.7143,23.24044 c 2.04287,12.78224 3.70544,23.80293 3.69461,24.49043 -0.0553,3.51123 -3.37443,0.37355 -7.02265,-6.63879 -5.16867,-9.93483 -12.98962,-18.62388 -22.47149,-24.96574 -10.1273,-6.77355 -15.953559,-8.63515 -27.025559,-8.63515 -10.22089,0 -16.99199,1.89026 -23.40064,6.53266 -11.22297,8.12988 -11.29284,23.64383 -0.14943,33.18216 5.87879,5.03203 11.96569,8.03564 26.66117,13.15609 26.994079,9.40574 36.351409,14.42069 45.418449,24.34148 9.96437,10.90261 14.20092,23.13799 14.11931,40.77729 -0.0877,18.94815 -4.26356,29.76383 -16.06618,41.61187 -12.61739,12.66595 -27.69962,18.75328 -55.383899,22.35345 -15.64409,2.03442 -34.29148,1.90529 -42.60015,-0.295 z M 1151.9958,371.61268 c -6.3934,-5.37965 -6.0301,-14.61517 0.7544,-19.18071 6.3733,-4.28889 14.7702,-1.71815 17.7601,5.43726 4.6137,11.04229 -9.3798,21.4298 -18.5145,13.74345 z m -84.215,-1.92938 c -18.1429,-2.97214 -35.0567,-8.3818 -49.1803,-15.72967 -5.0359,-2.61987 -8.2321,-4.95048 -8.7854,-6.40589 -0.4784,-1.25825 -0.9356,-13.4245 -1.016,-27.03609 -0.1396,-23.62037 -0.058,-24.78094 1.7868,-25.46344 1.6889,-0.62481 2.2224,0.18841 4.2255,6.44106 7.1082,22.18905 23.6949,42.67031 41.3019,50.99975 10.0839,4.77044 24.7236,5.30134 32.6832,1.18523 4.5133,-2.3339 8.7778,-7.46413 10.0847,-12.13201 4.8256,-17.23524 -10.5395,-37.1948 -39.9388,-51.88138 -9.3943,-4.69296 -25.0465,-15.02275 -31.7658,-20.96396 -11.7683,-10.40582 -17.7655,-24.13258 -17.7169,-40.55149 0.064,-21.53322 8.6896,-35.48496 26.9344,-43.56442 13.1371,-5.81761 25.8689,-6.69251 50.0995,-3.44275 8.1723,1.09606 19.6962,1.99606 25.6087,2 9.9725,0.007 10.75,0.14757 10.75,1.94847 0,1.06771 1.1248,12.43021 2.4996,25.25 1.3748,12.81978 2.4998,23.6462 2.5,24.0587 2e-4,0.4125 -0.8784,0.75 -1.9525,0.75 -1.4533,0 -3.1711,-2.36644 -6.7145,-9.25 -6.8286,-13.26545 -16.5935,-22.91059 -29.4212,-29.0602 -18.0685,-8.66206 -30.3475,-9.70345 -42.7017,-3.62152 -14.1547,6.96835 -16.2225,21.05668 -4.7651,32.46574 6.2048,6.17856 11.4596,9.16607 32.4659,18.45794 9.0256,3.99242 19.1506,8.85253 22.5,10.80023 29.7333,17.29105 44.5862,44.52398 40.8414,74.88348 -1.4877,12.06056 -4.3482,19.17436 -10.3516,25.743 -5.9238,6.48157 -11.0038,9.60721 -20.4003,12.55196 -9.0527,2.83699 -27.3879,3.56316 -39.5715,1.56726 z M 148.1517,348.48357 c -0.34273,-0.89315 1.55301,-3.41901 4.98343,-6.63984 3.7681,-3.53788 5.90108,-6.47599 6.6777,-9.19832 0.81756,-2.86584 1.0558,-22.90782 0.84023,-70.68475 l -0.30088,-66.68475 -2.86748,-2.99259 c -1.57711,-1.64593 -4.16461,-3.52988 -5.75,-4.18657 -1.73011,-0.71664 -2.88252,-1.94506 -2.88252,-3.07266 0,-1.77568 1.09764,-1.87868 20.02144,-1.87868 19.81638,0 20.03111,0.023 20.96618,2.25 0.5196,1.2375 6.6479,23.175 13.61843,48.75 6.97053,25.575 12.83575,46.6875 13.03382,46.91667 0.19807,0.22916 0.54008,0.22916 0.76003,0 0.21994,-0.22917 4.95224,-19.99167 10.51621,-43.91667 5.56396,-23.925 10.70063,-45.75 11.41482,-48.5 l 1.29852,-5 21.68528,-0.2695 c 21.13576,-0.26268 21.68527,-0.21863 21.68527,1.73818 0,1.56727 -0.87287,2.14726 -3.97908,2.64397 -8.18721,1.30918 -7.52092,-4.70117 -7.52092,67.84321 0,72.32997 -0.66584,66.50131 7.59996,66.52883 5.47477,0.0182 11.39512,-3.75349 15.40652,-9.81511 1.50755,-2.27807 10.82848,-29.16173 22.86495,-65.94769 11.17596,-34.15604 21.07474,-63.25388 21.9973,-64.66189 0.92256,-1.408 2.117,-2.56 2.65432,-2.56 0.61833,0 0.97695,13.58206 0.97695,37 0,20.35 -0.18789,37 -0.41754,37 -0.22964,0 -1.81175,-4.1625 -3.51579,-9.25 -1.70405,-5.0875 -3.45558,-9.81309 -3.8923,-10.50131 -0.48374,-0.76233 -3.47731,7.05316 -7.66062,20 -3.77662,11.68822 -7.0554,21.80091 -7.28616,22.47265 -0.41364,1.20409 2.6118,1.16989 18.02241,-0.20372 l 4.75,-0.42339 v 3.8459 c 0,2.33822 -0.53832,4.05246 -1.37318,4.37283 -0.75525,0.28982 -6.60893,0.84936 -13.00819,1.24343 l -11.635,0.71649 -3.49182,11.18555 c -1.92049,6.15205 -3.49181,12.13299 -3.49181,13.29098 0,2.99182 4.23149,5.93517 10.57287,7.35431 6.58455,1.47356 8.77043,3.43875 5.28582,4.75217 -1.29728,0.48897 -8.43369,1.41064 -15.85869,2.04817 -19.64329,1.68661 -47.58573,4.88154 -62.39584,7.13433 -15.63215,2.37784 -14.60416,2.37289 -14.60416,0.0702 0,-1.26626 1.29345,-2.40896 3.91334,-3.45723 7.462,-2.9857 7.08666,0.19604 7.08666,-60.07386 0,-34.01025 -0.35066,-53.62607 -0.94794,-53.02749 -0.52137,0.5225 -6.86808,26.375 -14.10379,57.45 -7.23572,31.075 -13.76238,57.96536 -14.50369,59.75636 -2.3938,5.78338 -9.23154,6.66559 -11.31898,1.46039 -0.59923,-1.49421 -7.63688,-26.34175 -15.63923,-55.21675 -8.00235,-28.875 -14.80967,-53.34696 -15.12738,-54.38213 -1.79459,-5.84733 -2.32412,5.48518 -2.28407,48.88213 0.0244,26.4 0.3975,50.14651 0.8292,52.77003 0.97232,5.90911 4.17276,9.49075 9.83351,11.00477 3.35082,0.89621 4.26237,1.60243 4.26237,3.30225 0,1.94376 -1.08622,2.38785 -10.75,4.39506 -5.9125,1.22805 -14.27065,3.03713 -18.57366,4.02019 -6.72267,1.53586 -7.9015,1.58453 -8.37682,0.34586 z M 860.09953,328.0553 c -7.0761,-1.20463 -15.8147,-4.3578 -20.2963,-7.32362 -6.7145,-4.44342 -11.0218,-10.84956 -24.9277,-37.07427 -13.2801,-25.04457 -16.0228,-29.01435 -20.5233,-29.70506 -1.9553,-0.30008 -2.006,0.33128 -2.265,28.23143 -0.3002,32.3241 -0.4968,31.42353 7.4072,33.92454 5.9088,1.86966 6.7983,4.67684 1.3577,4.28503 -8.0717,-0.5813 -50.5283,-3.24794 -51.7117,-3.24794 -0.7085,0 -1.2882,-0.9 -1.2882,-2 0,-1.53229 0.6666,-2 2.8507,-2 5.5682,0 9.0453,-1.92048 9.6645,-5.33777 0.3151,-1.73923 0.4406,-28.67747 0.2788,-59.86275 -0.2168,-41.80124 -0.6032,-57.00959 -1.4707,-57.87668 -0.6472,-0.64689 -3.5722,-1.71567 -6.5,-2.37508 -3.3785,-0.7609 -5.3233,-1.71931 -5.3233,-2.62332 0,-1.20114 5.6426,-1.46686 36,-1.69529 21.9095,-0.16487 37.8879,0.13074 40.8236,0.75524 12.1241,2.57914 22.018,10.50674 25.2475,20.22979 1.9253,5.79667 1.5456,22.43721 -0.6632,29.06083 -1.7826,5.34555 -7.2982,11.38234 -13.0735,14.30894 -4.2564,2.15685 -4.8446,2.80976 -4.2437,4.71002 0.3837,1.21334 8.4435,15.89092 17.9108,32.61684 17.7427,31.34648 22.7811,38.3335 28.5574,39.60217 2.1157,0.4647 2.9553,1.1793 2.7359,2.32874 -0.258,1.35177 -1.701,1.68643 -7.8057,1.81037 -4.119,0.0836 -9.8528,-0.25035 -12.7418,-0.74216 z m -50.3168,-85.37397 c 7.407,-3.83032 11.533,-13.38203 11.4625,-26.53592 -0.093,-17.28463 -8.3489,-27.01451 -22.893,-26.97911 -6.8983,0.0168 -6.6678,-0.92042 -6.3168,25.67798 0.3353,25.40391 0.5249,26.42134 5.282,28.34961 3.2657,1.32369 9.4023,1.07135 12.4653,-0.51256 z m 115.5162,85.18587 c -0.2698,-0.70302 -0.3682,-10.26552 -0.2186,-21.25 l 0.2719,-19.97179 36.25,-0.26247 c 26.2931,-0.19038 36.25,0.0458 36.25,0.86002 0,3.41051 -7.3209,14.25774 -14.5076,21.49561 -13.3019,13.39672 -30.1037,20.34928 -49.2738,20.38948 -5.8134,0.0122 -8.4276,-0.36357 -8.7719,-1.26085 z m -573.26518,-9.42609 c 0.19264,-1.0003 2.33244,-2.42136 5.1802,-3.44021 2.66859,-0.95475 5.12335,-2.00727 5.45501,-2.33893 0.33166,-0.33166 -1.54823,-7.10857 -4.17754,-15.05979 -4.70588,-14.23096 -4.8263,-14.45677 -7.70989,-14.45677 -2.74052,0 -2.92935,-0.25247 -2.92935,-3.91667 0,-2.17898 0.53773,-4.09591 1.21202,-4.32067 0.94935,-0.31645 0.94935,-1.28069 0,-4.44935 -1.508,-5.03326 -1.76438,-91.2685 -0.26686,-89.76331 0.51983,0.5225 7.45117,17.825 15.40298,38.45 24.49505,63.53407 32.74088,84.40647 34.30445,86.83379 1.66638,2.58693 8.60323,6.11014 12.09741,6.14425 1.57601,0.0154 2.25,0.62106 2.25,2.02196 0,1.51209 -0.67087,2.00308 -2.75,2.01261 -1.5125,0.007 -14.675,0.90127 -29.25,1.98739 -32.00965,2.38535 -29.21534,2.35668 -28.81843,0.2957 z m 87.31843,-1.87156 c -11.33267,-1.51668 -17.98355,-3.0222 -24.71585,-5.59477 -7.04097,-2.69051 -7.76733,-3.22747 -8.30436,-6.13889 -5.14123,-27.87249 -6.08878,-34.90329 -4.77207,-35.40856 0.7582,-0.29095 1.49996,-0.3609 1.64837,-0.15546 0.1484,0.20545 2.26649,3.95014 4.70687,8.32153 9.50471,17.02561 26.82449,29.90102 40.23928,29.91362 8.59974,0.008 14.23029,-1.85332 18.96467,-6.2695 3.60189,-3.3598 4.09256,-4.38171 4.50773,-9.38809 0.39429,-4.75465 0.0657,-6.30078 -2.13858,-10.06206 -1.43245,-2.44429 -4.58896,-6.191 -7.01448,-8.32602 -4.41944,-3.89015 -6.92483,-5.27652 -24.66013,-13.64578 -23.67142,-11.17051 -32.69678,-23.64574 -31.78274,-43.93142 0.63009,-13.98397 5.7589,-23.68768 15.55385,-29.4279 10.90039,-6.38805 27.09804,-7.96179 45.07514,-4.37942 5.33077,1.06229 12.7298,2.2231 16.4423,2.5796 3.7125,0.35649 6.75,0.79739 6.75,0.97977 0,0.89014 5.07922,33.30459 5.52498,35.25921 0.35182,1.54269 0.0527,2.25 -0.9514,2.25 -0.80549,0 -3.16952,-3.2625 -5.2534,-7.25 -4.87207,-9.32268 -15.60433,-20.2703 -23.83144,-24.30965 -5.20079,-2.55348 -7.10711,-2.94035 -14.48874,-2.94035 -7.1551,0 -9.41608,0.42924 -14.28982,2.71291 -4.94772,2.31832 -6.08491,3.37998 -7.81862,7.29934 -4.98658,11.27299 3.06403,20.49486 25.73091,29.47439 25.01926,9.91143 35.44004,17.58692 41.63461,30.66622 3.0044,6.34353 3.23869,7.58265 3.18544,16.84714 -0.0461,8.02674 -0.51902,11.17398 -2.39646,15.94942 -5.9333,15.0919 -21.68098,23.83676 -44.88214,24.92355 -5.31515,0.24897 -11.01392,0.272 -12.66392,0.0512 z m 236,-3.44016 c -7.7,-0.40698 -17.2625,-0.79486 -21.25,-0.86197 -6.37491,-0.10728 -7.25,-0.34799 -7.25,-1.9942 0,-1.42043 0.99543,-2.03137 4.12524,-2.53185 8.66192,-1.38509 7.87476,4.62332 7.87476,-60.10809 v -57.44176 l -2.25,-1.44908 c -1.2375,-0.79699 -3.9375,-1.75745 -6,-2.13434 -2.7678,-0.50579 -3.75,-1.17996 -3.75,-2.57398 0,-1.81067 1.24992,-1.88743 30.25,-1.85783 35.77545,0.0365 42.63885,0.72659 50.87215,5.11492 10.9142,5.81722 15.2998,13.68665 15.2444,27.3542 -0.059,14.64431 -4.5243,23.42389 -14.4292,28.37343 l -5.812,2.9043 5.8559,2.13516 c 7.6284,2.78145 15.105,9.52558 18.7187,16.88475 2.5567,5.20675 2.7984,6.6584 2.7812,16.70236 -0.015,9.00494 -0.3973,11.82538 -2.1056,15.55081 -3.0334,6.61485 -7.6348,11.36886 -13.6183,14.06969 -4.9343,2.22727 -6.4859,2.38013 -25.2572,2.48825 -11.0001,0.0634 -26.3,-0.21779 -34.00005,-0.62477 z m 35.18385,-7.92744 c 9.9238,-4.50556 14.1172,-20.7771 9.3403,-36.24303 -3.6513,-11.82145 -12.2705,-18.47637 -24.6662,-19.04485 l -5.858,-0.26866 -0.2674,25.40193 c -0.2433,23.10104 -0.1074,25.58171 1.5,27.38663 4.2756,4.80107 12.8524,5.99099 19.9513,2.76798 z m -1.4878,-66.99308 c 3.3737,-3.72186 6.804,-14.59308 6.804,-21.56346 0,-8.28566 -3.4297,-17.92961 -8.0024,-22.50236 -4.1279,-4.12791 -7.8605,-5.36519 -14.5416,-4.82029 l -3.9561,0.32265 v 26 26 l 5.5,0.51245 c 7.2636,0.67678 10.9266,-0.34219 14.1961,-3.94899 z m 172.6568,68.18654 c -5.3113,-5.60205 -12.8528,-16.84848 -12.8528,-19.16702 0,-0.81444 2.8772,-1.07094 9.75,-0.86919 l 9.75,0.28621 0.2798,12.75 c 0.154,7.0125 -0.115,12.75 -0.5977,12.75 -0.4828,0 -3.3309,-2.5875 -6.3293,-5.75 z m -383.85285,3.3379 c 0,-0.86799 1.5402,-1.67232 3.99718,-2.08742 2.19844,-0.37143 5.01094,-1.4963 6.25,-2.49971 l 2.25282,-1.82439 V 247.1451 190.96841 l -2.36078,-1.9115 c -1.29844,-1.05132 -3.34993,-1.9115 -4.55887,-1.9115 -2.57229,0 -6.39628,-2.5174 -5.37513,-3.53855 0.9691,-0.96911 43.60979,-1.90634 48.13217,-1.05793 4.97741,0.93376 4.63613,3.11392 -0.6977,4.45699 -2.39818,0.60387 -4.88116,1.72552 -5.51775,2.49256 -0.82467,0.99367 -1.08045,8.54638 -0.88969,26.27077 l 0.26775,24.87616 15.11505,0.27532 15.11505,0.27532 0.62394,-3.77532 c 0.95345,-5.76905 0.7175,-40.26122 -0.30558,-44.67161 -1.03674,-4.46925 -1.86048,-5.15813 -7.18636,-6.00977 -2.47602,-0.39593 -3.8621,-1.15167 -3.8621,-2.10576 0,-1.27942 3.64732,-1.48818 26,-1.48818 21.95231,0 26,0.22398 26,1.43873 0,0.94084 -1.57442,1.67482 -4.54954,2.12097 -7.98265,1.19707 -7.45046,-3.05862 -7.45046,59.57747 0,36.55928 0.35804,56.66332 1.03156,57.9218 0.63674,1.18976 2.57612,2.17447 5.06711,2.5728 2.21955,0.35492 4.76121,1.37047 5.64813,2.25677 1.48302,1.48199 -0.18955,1.63537 -20.81711,1.90907 -12.33633,0.16369 -24.34219,0.0236 -26.67969,-0.31127 -5.50696,-0.78897 -5.63891,-3.07589 -0.23018,-3.98969 7.14078,-1.20643 6.98018,-0.50311 6.98018,-30.56808 v -26.92857 h -15.5 -15.5 v 26.87756 c 0,30.07052 -0.32685,28.71112 7.37398,30.66912 2.5279,0.64274 4.24321,1.70405 4.44464,2.75 0.30234,1.56992 -1.7531,1.70332 -26.2453,1.70332 -22.21891,0 -26.57332,-0.23139 -26.57332,-1.4121 z m 365.63025,-39.8379 c -1.3589,-5.0709 -0.6023,-21.53941 1.3382,-29.12676 2.5386,-9.92556 8.7272,-21.7605 15.1427,-28.95863 9.5458,-10.71013 8.8889,-12.65397 8.8889,26.30021 v 34.03518 h -12.3834 c -11.9967,0 -12.4022,-0.0703 -12.9864,-2.25 z m 61.6089,-40 0.2609,-42.25 11,0.12903 c 8.793,0.10315 12.5605,0.63536 18.778,2.6527 24.9557,8.09713 44.57488,30.58847 48.66347,55.78754 1.1712,7.2182 1.3465,16.55491 0.4167,22.18073 l -0.6199,3.75 h -39.37997 -39.3801 z m 221.76097,-31.75 v -9 h -3 c -2.5448,0 -3,-0.38487 -3,-2.53621 v -2.53621 l 9.75,0.28621 c 9.2493,0.27151 9.7664,0.40175 10.0696,2.53621 0.2864,2.01709 -0.1018,2.25 -3.75,2.25 h -4.0696 v 9 9 h -3 -3 z m 18,-2.56336 v -11.56336 l 3.1178,0.31336 c 2.8397,0.2854 3.3212,0.87667 5.3973,6.62728 1.2537,3.47266 2.4931,6.52762 2.7543,6.7888 0.2612,0.26119 1.6011,-2.58008 2.9775,-6.31392 2.2974,-6.23196 2.759,-6.8145 5.6279,-7.10216 l 3.1252,-0.31336 v 11.56336 c 0,10.89669 -0.1153,11.56336 -2,11.56336 -1.6667,0 -2,-0.66667 -2,-4 0,-5.12401 -1.3433,-5.09852 -3.4092,0.0647 -1.3971,3.49165 -1.9999,4.02033 -4.2757,3.75 -1.9528,-0.23199 -2.9339,-1.15014 -3.7322,-3.49294 -1.6676,-4.89436 -2.5829,-5.06744 -2.5829,-0.48844 0,3.77778 -0.2333,4.16667 -2.5,4.16667 h -2.5 v -11.56336 z m -814.25012,-39.08273 -2.75,-0.48675 v -9.43358 c 0,-5.18847 0.1125,-9.43044 0.25,-9.42661 0.1375,0.004 3.625,1.15662 7.75,2.56175 8.48535,2.89043 19.25129,3.55412 25.20002,1.55351 4.6455,-1.56232 9.49785,-6.99483 10.36195,-11.60085 l 0.66061,-3.52138 h 11.38871 c 7.00766,0 11.38871,0.38888 11.38871,1.0109 0,0.55599 -0.99813,3.14349 -2.21807,5.75 -4.56007,9.74302 -15.88598,17.98858 -30.01359,21.85066 -5.33638,1.45882 -26.96935,2.63602 -32.01834,1.74235 z m -17.75,-2.38084 c -14.96931,-2.91552 -15.12939,-3.0618 -17.53271,-16.02103 -0.86209,-4.64862 -1.80023,-9.23954 -2.08476,-10.20204 -0.46793,-1.58296 0.41979,-1.75 9.30011,-1.75 h 9.81741 l 5.74997,4.07908 5.74998,4.07907 v 10.31394 c 0,7.35979 -0.35803,10.4346 -1.25,10.73522 -0.6875,0.2317 -5.075,-0.3237 -9.75,-1.23424 z m 134.31717,-0.47606 c -9.02211,-1.96118 -14.59228,-4.73893 -20.40635,-10.17628 -4.90824,-4.59022 -10.88135,-13.39569 -10.90144,-16.07073 -0.007,-0.9509 4.02128,-1.25 16.83563,-1.25 15.8638,0 16.95598,0.12279 18.75,2.10809 7.94,8.78651 26.39633,9.07485 33.12751,0.51754 1.82649,-2.32201 2.77141,-2.62563 8.1714,-2.62563 4.21862,0 6.10584,0.38639 6.10529,1.25 -0.002,3.2287 -6.11771,13.63562 -10.2341,17.41518 -5.82467,5.34805 -9.38663,7.14664 -17.60134,8.88773 -8.16828,1.73124 -15.70642,1.71357 -23.8466,-0.0559 z m 201.43283,0.75344 c -29.39034,-0.24126 -33.75,-0.47315 -33.75,-1.79514 0,-1.67539 0.69975,-1.99918 6.36173,-2.94367 2.12395,-0.3543 4.93645,-1.71891 6.25,-3.03246 2.16565,-2.16565 2.38827,-3.23142 2.38827,-11.43373 v -9.04545 h 16 15.99995 v 8.5 c 0,12.078 0.5247,12.5 15.5399,12.5 9.4359,0 12.2311,-0.35267 15.3315,-1.93438 4.0573,-2.06987 14.6177,-12.85 16.3825,-16.72345 0.809,-1.77562 1.875,-2.34217 4.4067,-2.34217 1.8367,0 3.3395,0.16238 3.3395,0.36085 0,0.19847 -0.8953,6.16097 -1.9895,13.25 -1.0941,7.08903 -1.9941,13.45165 -2,14.13915 -0.01,0.95531 -3.6057,1.19431 -15.2605,1.01376 -8.3875,-0.12994 -30.4375,-0.36093 -49.00005,-0.51331 z m 168.24355,-0.17362 c -8.461,-2.61141 -14.5947,-8.72609 -19.4426,-19.38223 -1.953,-4.29297 -3.5509,-8.00547 -3.5509,-8.25 0,-0.24453 7.5534,-0.4446 16.7853,-0.4446 h 16.7854 l 3.1542,6.39636 c 5.4537,11.0596 11.621,16.2087 21.5874,18.02347 2.8481,0.51861 3.7301,1.12238 3.4871,2.38718 -0.2897,1.50795 -2.2911,1.71214 -18.3123,1.86821 -9.893,0.0964 -19.1151,-0.17291 -20.4936,-0.59839 z m -298.99355,-2.07683 c 0,-1.47343 0.66667,-2 2.53212,-2 4.26143,0 9.40722,-2.71027 10.47424,-5.51673 0.5465,-1.43741 0.99364,-6.18417 0.99364,-10.54837 v -7.9349 h 16 16 v 8.86514 c 0,11.19283 1.5664,13.74315 9.05079,14.73599 3.93505,0.522 4.94921,1.03996 4.94921,2.5277 0,1.78664 -1.35517,1.87117 -30,1.87117 -29.33333,0 -30,-0.0444 -30,-2 z m 204.00005,0 c 0,-1.56219 0.6666,-2 3.0454,-2 1.9001,0 3.9686,-0.92311 5.5,-2.45455 2.2632,-2.2632 2.4546,-3.19865 2.4546,-12 v -9.54545 h 16.5 16.5 v 9.5 c 0,10.98661 1.1509,13.02079 7.9859,14.11374 3.0275,0.48412 4.0141,1.10202 4.0141,2.51407 0,1.78501 -1.3039,1.87219 -28,1.87219 -27.3334,0 -28,-0.0476 -28,-2 z m -429.31715,-29.75 c -0.23932,-0.4125 -1.8757,-6.32692 -3.6364,-13.14316 -2.56942,-9.94705 -2.94093,-12.55404 -1.88224,-13.20835 0.72546,-0.44836 1.60687,-0.49644 1.95869,-0.10684 1.33173,1.47473 18.87705,26.36026 18.87705,26.7744 0,0.76807 -14.86608,0.46132 -15.3171,-0.31605 z m 77.25892,-4.37423 c -3.44305,-7.35104 -10.60576,-13.18541 -27.36921,-22.29352 L 347.85218,87.80989 V 68.41864 c 0,-15.25016 0.26694,-19.22956 1.25,-18.63409 0.6875,0.41644 3.37704,2.27769 5.97675,4.13612 2.59972,1.85842 10.96185,6.19579 18.58253,9.63859 14.85662,6.71178 20.33393,10.04778 26.79963,16.32253 10.15481,9.85491 15.33585,21.65757 15.37,35.01362 l 0.0211,8.25 h -11.82906 -11.82907 z m 44.59783,4.18839 c -1.69426,-2.74137 -2.48109,-19.46232 -2.50877,-53.31415 -0.0296,-36.23261 -0.11025,-37.82937 -2.00544,-39.72456 -1.84461,-1.84461 -3.58654,-2.50798 -8.52544,-3.24672 -1.22294,-0.18292 -2.12988,-1.21306 -2.33428,-2.65135 l -0.33428,-2.3522 19.83428,0.63327 c 34.51708,1.10207 39.33428,1.54122 39.33428,3.58589 0,1.34546 -1.11338,1.94554 -4.57208,2.46421 -8.84962,1.32708 -8.43005,-0.88198 -8.4123,44.29146 0.0117,29.86929 0.35196,41.17927 1.36872,45.49999 l 1.3531,5.75 h -16.30971 c -9.04898,0 -16.56718,-0.41661 -16.88808,-0.93584 z m 74.78035,-2.81416 c 0.79842,-2.58381 1.16208,-16.6051 1.16939,-45.08695 l 0.0106,-41.33696 -2.36986,-1.92039 c -1.30342,-1.05621 -4.11592,-2.19959 -6.25,-2.54085 -3.31058,-0.52938 -3.88014,-0.98862 -3.88014,-3.12857 0,-2.40847 0.18433,-2.48285 4.63957,-1.87219 2.55177,0.34975 10.87677,0.63592 18.5,0.63592 h 13.86043 v 2.5 c 0,2.25468 -0.39697,2.5 -4.04545,2.5 -2.96185,0 -4.70293,0.65747 -6.5,2.45454 l -2.45455,2.45455 -0.007,37.79545 c -0.004,20.7875 -0.29398,40.83295 -0.6446,44.54545 l -0.6375,6.75 h -6.27479 -6.27479 l 1.15879,-3.75 z m 42.4783,-40.72321 c -0.29446,-43.90076 -0.32582,-44.50073 -2.43629,-46.61021 -1.32508,-1.32447 -3.91124,-2.33686 -6.80174,-2.66267 -4.04535,-0.45597 -4.62375,-0.806 -4.36201,-2.63978 0.29867,-2.0926 0.61185,-2.11682 30.77322,-2.37911 33.5058,-0.29138 42.59833,0.59017 52.40785,5.08111 7.3498,3.36486 13.9862,9.69226 17.3502,16.54237 5.46224,11.12277 2.98252,29.40957 -5.50782,40.61761 -8.96989,11.84111 -20.75756,17.09539 -36.53467,16.28513 -5.05287,-0.2595 -9.97454,-0.81008 -10.93704,-1.22352 -1.60675,-0.69016 -1.75,0.15751 -1.75,10.35529 v 11.10699 h -15.9517 -15.95169 z m 46.53051,12.10919 c 4.83306,-2.01938 8.38986,-6.89928 10.79135,-14.80565 1.76931,-5.82509 2.05514,-8.74287 1.66009,-16.94672 -0.40533,-8.41759 -0.91649,-10.76909 -3.39404,-15.61355 -3.70481,-7.24417 -9.87713,-11.39743 -17.93068,-12.0653 l -5.45553,-0.45241 v 30.0405 c 0,23.09672 0.28893,30.15708 1.25,30.54488 2.52708,1.0197 9.90643,0.62376 13.07881,-0.70175 z m 51.67119,-11.08892 c 0,-30.81542 -0.33711,-44.19282 -1.15912,-45.99693 -1.20187,-2.63782 -5.82915,-4.53387 -11.09088,-4.54454 -2.01335,-0.004 -2.75,-0.50434 -2.75,-1.86748 0,-1.55226 1.03944,-1.96329 6.25,-2.47146 13.32756,-1.29982 86.91755,-2.89912 87.90625,-1.91044 0.798,0.798 4.7843,28.08171 4.8313,33.06712 0.01,0.72783 -0.6955,1.17783 -1.5609,1 -0.888,-0.18249 -3.1588,-4.00965 -5.2134,-8.78677 -7.0093,-16.29682 -12.7692,-19.02875 -38.4633,-18.24298 l -6.75,0.20643 v 26.12917 26.12916 l 6.25,-0.70429 c 11.2994,-1.27328 14.852,-4.28765 20.0993,-17.05404 1.3564,-3.3 2.7186,-6.7875 3.0271,-7.75 0.3085,-0.9625 1.25,-1.75 2.0923,-1.75 1.3387,0 1.5314,3.52274 1.5314,28 0,23.50693 -0.2277,27.99999 -1.4185,27.99999 -0.8561,0 -2.2691,-2.55598 -3.5639,-6.44686 -4.3442,-13.05443 -8.2908,-16.48681 -19.8691,-17.28041 l -8.1486,-0.55851 v 18.14289 18.14289 h -15.99995 -16 z m 103.00005,-3.11279 c 0,-30.1866 -0.3642,-47.2461 -1.0352,-48.5 -0.7862,-1.46896 -2.1093,-1.93426 -5.5,-1.93426 -3.7529,0 -4.4648,-0.30949 -4.4648,-1.94098 0,-1.06754 0.3485,-2.1564 0.7745,-2.41968 0.426,-0.26328 12.9135,-2.17238 27.75,-4.24246 29.4885,-4.11441 52.0143,-5.10084 60.1328,-2.63329 7.5121,2.28324 13.4987,7.14924 16.8202,13.6717 2.9606,5.81391 3.0217,6.23317 2.9836,20.5 -0.031,11.64871 -0.3907,15.36555 -1.7963,18.56471 -2.7964,6.36494 -6.2579,10.77871 -11.7196,14.94384 -6.0752,4.63297 -6.2408,3.10337 2.5828,23.84705 3.5582,8.36501 6.47,15.5466 6.4707,15.9591 7e-4,0.4125 -7.364,0.75 -16.366,0.75 h -16.3672 l -5.7949,-14.07126 c -3.1872,-7.7392 -6.6461,-15.15334 -7.6864,-16.47589 -2.0969,-2.66578 -8.8061,-4.89807 -11.8334,-3.93724 -1.8333,0.58186 -1.9508,1.63968 -1.9508,17.55178 v 16.93261 h -16.5 -16.5 z m 52.2821,1.1889 c 11.7733,-5.03746 18.0682,-27.57478 11.9813,-42.896 -1.9649,-4.94571 -8.1732,-10.16199 -14.0545,-11.80866 -4.7824,-1.33899 -14.3035,-1.59615 -16.179,-0.43698 -0.6636,0.41012 -1.0299,9.83727 -1.0299,26.50492 v 25.8684 l 2.6348,2.07258 c 3.1527,2.47988 11.6477,2.83492 16.6473,0.69574 z M 338.2518,81.31994 c -25.87037,-18.7404 -28.70292,-56.39082 -5.08122,-67.54001 2.84988,-1.34511 6.4191,-2.72173 7.9316,-3.05914 l 2.75,-0.61347 v 7.39332 c 0,4.06633 -0.68168,9.3254 -1.51484,11.68683 -1.35311,3.83514 -1.35311,4.92477 0,10.2065 1.66769,6.50963 2.23585,44.75145 0.66488,44.75145 -0.46748,0 -2.60517,-1.27147 -4.75042,-2.82548 z m 70.23244,-29.64982 c -7.41077,-16.59327 -25.04608,-30.36968 -42.27687,-33.02599 -3.86113,-0.59523 -12.5858,0.47427 -16.60519,2.03552 -1.55244,0.60301 -1.75,-0.0254 -1.75,-5.56672 V 8.86644 l 11.25,0.56507 c 9.48701,0.47651 13.36558,1.23167 24.75,4.81879 7.425,2.33955 15.75,4.43952 18.5,4.66661 2.75,0.22708 5.37227,0.76617 5.82727,1.19797 0.69327,0.65791 5.66751,32.91691 5.67145,36.78054 0.003,3.26851 -2.78627,0.55239 -5.36666,-5.2253 z"
       style="fill:#000000;stroke:none;stroke-width:3.20000005;stroke-miterlimit:4;stroke-dasharray:none" />
    <text
       xml:space="preserve"
       style="font-style:normal;font-weight:normal;font-size:24px;line-height:125%;font-family:sans-serif;letter-spacing:0px;word-spacing:0px;fill:#000000;fill-opacity:1;stroke:none;stroke-width:1px;stroke-linecap:butt;stroke-linejoin:miter;stroke-opacity:1"
       x="394.125"
       y="529.54724"
       id="text4616"><tspan
         sodipodi:role="line"
         id="tspan4614"
         x="394.125"
         y="529.54724"
         style="font-style:normal;font-variant:normal;font-weight:normal;font-stretch:normal;font-size:64px;font-family:'Berlin Sans FB Demi';-inkscape-font-specification:'Berlin Sans FB Demi'">RAMDONIZER</tspan></text>
  </g>
</svg>
